{
    "asset" : {
        "generator" : "Khronos glTF Blender I/O v1.1.46",
        "version" : "2.0"
    },
    "scene" : 0,
    "scenes" : [
        {
            "name" : "Scene",
            "nodes" : [
                0
            ]
        }
    ],
    "nodes" : [
        {
            "mesh" : 0,
            "name" : "Ganesha_LP_cleanUV",
            "rotation" : [
                1,
                0,
                0,
                -1.3435884227419592e-07
            ],
            "translation" : [
                0,
                -2.3799874782562256,
                0
            ]
        }
    ],
    "materials" : [
        {
            "doubleSided" : true,
            "emissiveFactor" : [
                0,
                0,
                0
            ],
            "name" : "initialShadingGroup.001",
            "pbrMetallicRoughness" : {
                "baseColorTexture" : {
                    "index" : 0,
                    "texCoord" : 0
                },
                "metallicFactor" : 0,
                "roughnessFactor" : 0.5
            }
        }
    ],
    "meshes" : [
        {
            "name" : "Ganesha_LP_cleanUV",
            "primitives" : [
                {
                    "attributes" : {
                        "POSITION" : 0,
                        "NORMAL" : 1,
                        "TEXCOORD_0" : 2
                    },
                    "indices" : 3,
                    "material" : 0
                }
            ]
        }
    ],
    "textures" : [
        {
            "source" : 0
        }
    ],
    "images" : [
        {
            "bufferView" : 4,
            "mimeType" : "image/png",
            "name" : "Image_0"
        }
    ],
    "accessors" : [
        {
            "bufferView" : 0,
            "componentType" : 5126,
            "count" : 6998,
            "max" : [
                1.397333025932312,
                4.840554237365723,
                2.881531000137329
            ],
            "min" : [
                -1.969316005706787,
                -2.478698968887329,
                -2.887908935546875
            ],
            "type" : "VEC3"
        },
        {
            "bufferView" : 1,
            "componentType" : 5126,
            "count" : 6998,
            "type" : "VEC3"
        },
        {
            "bufferView" : 2,
            "componentType" : 5126,
            "count" : 6998,
            "type" : "VEC2"
        },
        {
            "bufferView" : 3,
            "componentType" : 5123,
            "count" : 39816,
            "type" : "SCALAR"
        }
    ],
    "bufferViews" : [
        {
            "buffer" : 0,
            "byteLength" : 83976,
            "byteOffset" : 0
        },
        {
            "buffer" : 0,
            "byteLength" : 83976,
            "byteOffset" : 83976
        },
        {
            "buffer" : 0,
            "byteLength" : 55984,
            "byteOffset" : 167952
        },
        {
            "buffer" : 0,
            "byteLength" : 79632,
            "byteOffset" : 223936
        },
        {
            "buffer" : 0,
            "byteLength" : 500537,
            "byteOffset" : 303568
        }
    ],
    "buffers" : [
        {
            "byteLength" : 804108,
            "uri" : "data:application/octet-stream;base64,"
        }
    ]
}
