{
    "asset" : {
        "generator" : "Khronos glTF Blender I/O v1.1.46",
        "version" : "2.0"
    },
    "scene" : 0,
    "scenes" : [
        {
            "name" : "Scene",
            "nodes" : [
                0
            ]
        }
    ],
    "nodes" : [
        {
            "mesh" : 0,
            "name" : "GD_mesh"
        }
    ],
    "materials" : [
        {
            "doubleSided" : true,
            "emissiveFactor" : [
                0,
                0,
                0
            ],
            "name" : "Material.001",
            "pbrMetallicRoughness" : {
                "baseColorTexture" : {
                    "index" : 0,
                    "texCoord" : 0
                },
                "metallicFactor" : 0,
                "roughnessFactor" : 0.5
            }
        }
    ],
    "meshes" : [
        {
            "name" : "GD_mesh",
            "primitives" : [
                {
                    "attributes" : {
                        "POSITION" : 0,
                        "NORMAL" : 1,
                        "TEXCOORD_0" : 2
                    },
                    "indices" : 3,
                    "material" : 0
                }
            ]
        }
    ],
    "textures" : [
        {
            "source" : 0
        }
    ],
    "images" : [
        {
            "bufferView" : 4,
            "mimeType" : "image/png",
            "name" : "wireframe4"
        }
    ],
    "accessors" : [
        {
            "bufferView" : 0,
            "componentType" : 5126,
            "count" : 54000,
            "max" : [
                0.9992132186889648,
                0.9995390176773071,
                0.9997654557228088
            ],
            "min" : [
                -0.9992132186889648,
                -0.9995390176773071,
                -0.9997654557228088
            ],
            "type" : "VEC3"
        },
        {
            "bufferView" : 1,
            "componentType" : 5126,
            "count" : 54000,
            "type" : "VEC3"
        },
        {
            "bufferView" : 2,
            "componentType" : 5126,
            "count" : 54000,
            "type" : "VEC2"
        },
        {
            "bufferView" : 3,
            "componentType" : 5123,
            "count" : 54000,
            "type" : "SCALAR"
        }
    ],
    "bufferViews" : [
        {
            "buffer" : 0,
            "byteLength" : 648000,
            "byteOffset" : 0
        },
        {
            "buffer" : 0,
            "byteLength" : 648000,
            "byteOffset" : 648000
        },
        {
            "buffer" : 0,
            "byteLength" : 432000,
            "byteOffset" : 1296000
        },
        {
            "buffer" : 0,
            "byteLength" : 108000,
            "byteOffset" : 1728000
        },
        {
            "buffer" : 0,
            "byteLength" : 2001,
            "byteOffset" : 1836000
        }
    ],
    "buffers" : [
        {
            "byteLength" : 1838004,
            "uri" : "data:application/octet-stream;base64,"
        }
    ]
}
