{
    "asset" : {
        "generator" : "Khronos glTF Blender I/O v1.1.46",
        "version" : "2.0"
    },
    "scene" : 0,
    "scenes" : [
        {
            "name" : "Scene",
            "nodes" : [
                0
            ]
        }
    ],
    "nodes" : [
        {
            "mesh" : 0,
            "name" : "Suzanne"
        }
    ],
    "meshes" : [
        {
            "name" : "Suzanne",
            "primitives" : [
                {
                    "attributes" : {
                        "POSITION" : 0,
                        "NORMAL" : 1,
                        "TEXCOORD_0" : 2
                    },
                    "indices" : 3
                }
            ]
        }
    ],
    "accessors" : [
        {
            "bufferView" : 0,
            "componentType" : 5126,
            "count" : 7872,
            "max" : [
                1.325934886932373,
                0.9392361640930176,
                0.8223199844360352
            ],
            "min" : [
                -1.325934886932373,
                -0.9704862236976624,
                -0.7782661318778992
            ],
            "type" : "VEC3"
        },
        {
            "bufferView" : 1,
            "componentType" : 5126,
            "count" : 7872,
            "type" : "VEC3"
        },
        {
            "bufferView" : 2,
            "componentType" : 5126,
            "count" : 7872,
            "type" : "VEC2"
        },
        {
            "bufferView" : 3,
            "componentType" : 5123,
            "count" : 11808,
            "type" : "SCALAR"
        }
    ],
    "bufferViews" : [
        {
            "buffer" : 0,
            "byteLength" : 94464,
            "byteOffset" : 0
        },
        {
            "buffer" : 0,
            "byteLength" : 94464,
            "byteOffset" : 94464
        },
        {
            "buffer" : 0,
            "byteLength" : 62976,
            "byteOffset" : 188928
        },
        {
            "buffer" : 0,
            "byteLength" : 23616,
            "byteOffset" : 251904
        }
    ],
    "buffers" : [
        {
            "byteLength" : 275520,
            "uri" : "data:application/octet-stream;base64,"
        }
    ]
}
