{
    "asset" : {
        "generator" : "Khronos glTF Blender I/O v1.1.46",
        "version" : "2.0"
    },
    "scene" : 0,
    "scenes" : [
        {
            "name" : "Scene",
            "nodes" : [
                0
            ]
        }
    ],
    "nodes" : [
        {
            "mesh" : 0,
            "name" : "Ganesha_LP_cleanUV",
            "rotation" : [
                0.7071067690849304,
                0,
                0,
                0.7071067690849304
            ],
            "translation" : [
                0,
                0,
                2.3799872398376465
            ]
        }
    ],
    "materials" : [
        {
            "doubleSided" : true,
            "emissiveFactor" : [
                0,
                0,
                0
            ],
            "name" : "initialShadingGroup",
            "pbrMetallicRoughness" : {
                "baseColorTexture" : {
                    "index" : 0,
                    "texCoord" : 0
                },
                "metallicFactor" : 0,
                "roughnessFactor" : 0.5
            }
        }
    ],
    "meshes" : [
        {
            "name" : "Ganesha_LP_cleanUV",
            "primitives" : [
                {
                    "attributes" : {
                        "POSITION" : 0,
                        "NORMAL" : 1,
                        "TEXCOORD_0" : 2
                    },
                    "indices" : 3,
                    "material" : 0
                }
            ]
        }
    ],
    "textures" : [
        {
            "source" : 0
        }
    ],
    "images" : [
        {
            "bufferView" : 4,
            "mimeType" : "image/jpeg",
            "name" : "rock"
        }
    ],
    "accessors" : [
        {
            "bufferView" : 0,
            "componentType" : 5126,
            "count" : 1383,
            "max" : [
                1.420789122581482,
                4.852527618408203,
                2.8827905654907227
            ],
            "min" : [
                -1.968585729598999,
                -2.486117362976074,
                -2.894052028656006
            ],
            "type" : "VEC3"
        },
        {
            "bufferView" : 1,
            "componentType" : 5126,
            "count" : 1383,
            "type" : "VEC3"
        },
        {
            "bufferView" : 2,
            "componentType" : 5126,
            "count" : 1383,
            "type" : "VEC2"
        },
        {
            "bufferView" : 3,
            "componentType" : 5123,
            "count" : 6768,
            "type" : "SCALAR"
        }
    ],
    "bufferViews" : [
        {
            "buffer" : 0,
            "byteLength" : 16596,
            "byteOffset" : 0
        },
        {
            "buffer" : 0,
            "byteLength" : 16596,
            "byteOffset" : 16596
        },
        {
            "buffer" : 0,
            "byteLength" : 11064,
            "byteOffset" : 33192
        },
        {
            "buffer" : 0,
            "byteLength" : 13536,
            "byteOffset" : 44256
        },
        {
            "buffer" : 0,
            "byteLength" : 144566,
            "byteOffset" : 57792
        }
    ],
    "buffers" : [
        {
            "byteLength" : 202360,
            "uri" : "data:application/octet-stream;base64,"
        }
    ]
}
